<svg xmlns="http://www.w3.org/2000/svg" xmlns:xlink="http://www.w3.org/1999/xlink" viewBox="0 0 100 125" version="1.1" x="0px" y="0px"><title>List v5.3</title><desc>Created with Sketch.</desc><g stroke="none" stroke-width="1" fill="none" fill-rule="evenodd"><g fill-rule="nonzero" fill="#000000"><path d="M38.75,50.8342028 L38.75,49.1657972 C38.75,48.7986193 39.0430263,48.5 39.4044925,48.5 L68.0955075,48.5 C68.4530795,48.5 68.75,48.7980876 68.75,49.1657972 L68.75,50.8342028 C68.75,51.2013807 68.4569737,51.5 68.0955075,51.5 L39.4044925,51.5 C39.0469205,51.5 38.75,51.2019124 38.75,50.8342028 Z M38.75,62.8342028 L38.75,61.1657972 C38.75,60.7986193 39.0430263,60.5 39.4044925,60.5 L68.0955075,60.5 C68.4530795,60.5 68.75,60.7980876 68.75,61.1657972 L68.75,62.8342028 C68.75,63.2013807 68.4569737,63.5 68.0955075,63.5 L39.4044925,63.5 C39.0469205,63.5 38.75,63.2019124 38.75,62.8342028 Z M38.75,38.8342028 L38.75,37.1657972 C38.75,36.7986193 39.0430263,36.5 39.4044925,36.5 L68.0955075,36.5 C68.4530795,36.5 68.75,36.7980876 68.75,37.1657972 L68.75,38.8342028 C68.75,39.2013807 68.4569737,39.5 68.0955075,39.5 L39.4044925,39.5 C39.0469205,39.5 38.75,39.2019124 38.75,38.8342028 Z M31.25,51.3394814 L31.25,48.6605186 C31.25,48.2876701 31.5457243,48 31.9105186,48 L34.5894814,48 C34.9623299,48 35.25,48.2957243 35.25,48.6605186 L35.25,51.3394814 C35.25,51.7123299 34.9542757,52 34.5894814,52 L31.9105186,52 C31.5376701,52 31.25,51.7042757 31.25,51.3394814 Z M31.25,63.3394814 L31.25,60.6605186 C31.25,60.2876701 31.5457243,60 31.9105186,60 L34.5894814,60 C34.9623299,60 35.25,60.2957243 35.25,60.6605186 L35.25,63.3394814 C35.25,63.7123299 34.9542757,64 34.5894814,64 L31.9105186,64 C31.5376701,64 31.25,63.7042757 31.25,63.3394814 Z M31.25,39.3394814 L31.25,36.6605186 C31.25,36.2876701 31.5457243,36 31.9105186,36 L34.5894814,36 C34.9623299,36 35.25,36.2957243 35.25,36.6605186 L35.25,39.3394814 C35.25,39.7123299 34.9542757,40 34.5894814,40 L31.9105186,40 C31.5376701,40 31.25,39.7042757 31.25,39.3394814 Z"/></g></g></svg>